# xmcd
#
# Track frame offsets: 
#        150
#        15085
#        38000
#        58875
#        79877
#        107967
#        125227
#        148089
#        156986
#        176496
#        195001
#        212523
#        232633
#        244125
#
# Disc length: 3482 seconds
#
# Revision: 0
# Processed by: cddbd v1.5.2PL0 Copyright (c) Steve Scherf et al.
# Submitted via: ExactAudioCopy v1.0b1
#
DISCID=b30d980e
DTITLE=Fred Chapelier and Friends - A Tribute To Roy Buchanan
DYEAR=2007
DGENRE=Blues
TTITLE0=High Wire
TTITLE1=I Can't Lose The Blues
TTITLE2=My Baby Says She's Gonna Leave Me
TTITLE3=After Hours
TTITLE4=Blues For Roy
TTITLE5=Further On Up The Road
TTITLE6=A Nickel And A Nail
TTITLE7=Reelin' And Rockin'
TTITLE8=Beer Drinking Woman
TTITLE9=The Chokin' Kind
TTITLE10=That's What I'm Here For
TTITLE11=The Messiah Will Come Again
TTITLE12=Rockin' Roy
TTITLE13=That's What I'm Here For (Instrumental)
EXTD=
EXTT0=
EXTT1=
EXTT2=
EXTT3=
EXTT4=
EXTT5=
EXTT6=
EXTT7=
EXTT8=
EXTT9=
EXTT10=
EXTT11=
EXTT12=
EXTT13=
PLAYORDER=
